<svg width="200" height="200" viewBox="0 0 200 200" fill="none" xmlns="http://www.w3.org/2000/svg">
<path d="M166.667 25H33.3334C24.0834 25 16.6667 32.4167 16.6667 41.6667V141.667C16.6667 146.087 18.4227 150.326 21.5483 153.452C24.6739 156.577 28.9131 158.333 33.3334 158.333H66.6667V175H133.333V158.333H166.667C175.833 158.333 183.333 150.833 183.333 141.667V41.6667C183.333 37.2464 181.577 33.0072 178.452 29.8816C175.326 26.7559 171.087 25 166.667 25ZM166.667 141.667H33.3334V41.6667H166.667V141.667Z" fill="#FCC874"/>
<path d="M54.1667 62.5H75.0001V50H41.6667V83.3333H54.1667V62.5ZM158.333 100H145.833V120.833H125V133.333H158.333V100Z" fill="#FCC874"/>
<path d="M89.3906 93.0039L89.5312 93.2852C88.8984 91.3086 88.3945 89.4883 88.0195 87.8242H88.4414C88.168 89.1211 87.707 90.8477 87.0586 93.0039H89.3906ZM95.4727 97.4453C95.7227 98.1094 95.6406 98.7422 95.2266 99.3438C94.7812 99.9609 94.1797 100.27 93.4219 100.27H93.375C92.8906 100.27 92.4531 100.129 92.0625 99.8477C91.6875 99.5742 91.4336 99.2188 91.3008 98.7812L90.5859 96.6133H85.9336L85.2773 98.7461C85.1445 99.1992 84.8867 99.5625 84.5039 99.8359C84.1133 100.125 83.6758 100.27 83.1914 100.27H82.9922C82.2266 100.27 81.6289 99.9648 81.1992 99.3555C80.7852 98.7773 80.6953 98.1484 80.9297 97.4688L84.8203 86.1602C85.0547 85.4805 85.4648 84.9297 86.0508 84.5078C86.6523 84.0703 87.332 83.8516 88.0898 83.8516H88.125C88.8672 83.8516 89.5352 84.0625 90.1289 84.4844C90.7227 84.8984 91.1406 85.4414 91.3828 86.1133L95.4727 97.4453ZM101.074 94.0703C101.074 94.9141 101.293 95.6289 101.73 96.2148C102.152 96.7539 102.652 97.0234 103.23 97.0234C103.59 97.0781 103.949 97.0469 104.309 96.9297C104.973 96.7109 105.316 96.1641 105.34 95.2891V92.3945C105.191 91.9961 104.816 91.6797 104.215 91.4453C103.527 91.1797 102.84 91.2148 102.152 91.5508C101.832 91.6992 101.574 91.9961 101.379 92.4414C101.176 92.8789 101.074 93.375 101.074 93.9297V94.0703ZM102.902 88C103.934 88 104.746 88.1758 105.34 88.5273V85.1172C105.34 84.5625 105.547 84.0781 105.961 83.6641C106.367 83.2578 106.867 83.0547 107.461 83.0547H107.508C108.102 83.0547 108.602 83.2578 109.008 83.6641C109.422 84.0781 109.629 84.5625 109.629 85.1172V99.332C109.629 99.5977 109.531 99.8281 109.336 100.023C109.125 100.219 108.875 100.316 108.586 100.316H106.383C106.078 100.316 105.832 100.223 105.645 100.035C105.441 99.832 105.34 99.6016 105.34 99.3438V99.7891C104.746 100.141 103.934 100.316 102.902 100.316C101.254 100.316 99.8555 99.7148 98.707 98.5117C97.5508 97.3008 96.9727 95.8516 96.9727 94.1641C96.9727 92.4688 97.5508 91.0156 98.707 89.8047C99.8555 88.6016 101.254 88 102.902 88ZM111.012 98.1602C111.129 97.7227 111.387 97.3945 111.785 97.1758C112.176 96.957 112.594 96.9141 113.039 97.0469C113.688 97.25 114.266 97.3516 114.773 97.3516C115.602 97.3516 116.016 97.1133 116.016 96.6367C116.016 96.3945 115.93 96.2031 115.758 96.0625C115.555 95.9062 115.141 95.7188 114.516 95.5C112.156 94.7188 110.992 93.4883 111.023 91.8086C111.023 90.6445 111.477 89.6836 112.383 88.9258C113.32 88.1602 114.531 87.7773 116.016 87.7773C116.758 87.7773 117.473 87.8672 118.16 88.0469C118.582 88.1562 118.902 88.3828 119.121 88.7266C119.324 89.0703 119.375 89.4453 119.273 89.8516L119.262 89.8633C119.176 90.2461 118.941 90.5508 118.559 90.7773C118.184 90.9961 117.781 91.0469 117.352 90.9297C116.914 90.8047 116.512 90.7422 116.145 90.7422C115.426 90.7422 115.066 90.9727 115.066 91.4336C115.066 91.6445 115.168 91.8203 115.371 91.9609C115.59 92.125 116.051 92.3281 116.754 92.5703C118.926 93.3203 120.023 94.582 120.047 96.3555C120.047 97.543 119.602 98.4961 118.711 99.2148C117.766 99.9727 116.453 100.352 114.773 100.352C113.828 100.352 112.93 100.227 112.078 99.9766C111.68 99.8516 111.379 99.6172 111.176 99.2734C110.973 98.9141 110.918 98.5508 111.012 98.1836V98.1602Z" fill="#FCC874"/>
</svg>
