<svg width="174" height="173" viewBox="0 0 174 173" fill="none" xmlns="http://www.w3.org/2000/svg">
<path d="M106.852 72.0833C113.815 72.0833 119.466 77.7347 119.466 84.6979V108.125H119.437V115.333H54.5625V93.7083H54.5769V84.6979C54.5769 77.7347 60.221 72.0833 67.1915 72.0833H106.852ZM159.083 84.6979C159.083 81.3523 157.754 78.1437 155.389 75.7781C153.023 73.4124 149.814 72.0833 146.469 72.0833H122.141C124.973 75.5073 126.675 79.9044 126.675 84.6979V93.7083H126.646V115.333H153.677C155.111 115.333 156.486 114.764 157.5 113.75C158.514 112.736 159.083 111.361 159.083 109.927V84.6979ZM47.3542 108.125H47.3686V84.6979L47.4334 83.1121C47.7446 79.0616 49.3063 75.2078 51.9026 72.0833H27.5312L26.4932 72.1266C23.3381 72.3871 20.3964 73.8244 18.2518 76.1532C16.1073 78.482 14.9168 81.5321 14.9167 84.6979V109.927C14.9167 112.911 17.3387 115.333 20.3229 115.333H47.3542V108.125ZM87 21.625C92.7353 21.625 98.2357 23.9033 102.291 27.9588C106.347 32.0143 108.625 37.5147 108.625 43.25C108.625 48.9853 106.347 54.4857 102.291 58.5412C98.2357 62.5967 92.7353 64.875 87 64.875C81.2647 64.875 75.7643 62.5967 71.7088 58.5412C67.6533 54.4857 65.375 48.9853 65.375 43.25C65.375 37.5147 67.6533 32.0143 71.7088 27.9588C75.7643 23.9033 81.2647 21.625 87 21.625ZM133.854 28.8333C138.634 28.8333 143.217 30.732 146.597 34.1115C149.976 37.4911 151.875 42.0747 151.875 46.8542C151.875 51.6336 149.976 56.2173 146.597 59.5968C143.217 62.9764 138.634 64.875 133.854 64.875C129.075 64.875 124.491 62.9764 121.112 59.5968C117.732 56.2173 115.833 51.6336 115.833 46.8542C115.833 42.0747 117.732 37.4911 121.112 34.1115C124.491 30.732 129.075 28.8333 133.854 28.8333ZM40.1458 28.8333C44.9252 28.8333 49.5089 30.732 52.8885 34.1115C56.268 37.4911 58.1667 42.0747 58.1667 46.8542C58.1667 51.6336 56.268 56.2173 52.8885 59.5968C49.5089 62.9764 44.9252 64.875 40.1458 64.875C35.3664 64.875 30.7827 62.9764 27.4032 59.5968C24.0236 56.2173 22.125 51.6336 22.125 46.8542C22.125 42.0747 24.0236 37.4911 27.4032 34.1115C30.7827 30.732 35.3664 28.8333 40.1458 28.8333ZM14.9167 127.948C14.9167 126.514 15.4862 125.139 16.5001 124.125C17.514 123.111 18.8891 122.542 20.3229 122.542H153.677C155.111 122.542 156.486 123.111 157.5 124.125C158.514 125.139 159.083 126.514 159.083 127.948V131.552C159.083 138.721 156.235 145.597 151.166 150.666C146.097 155.735 139.221 158.583 132.052 158.583H41.9479C34.7788 158.583 27.9033 155.735 22.8339 150.666C17.7646 145.597 14.9167 138.721 14.9167 131.552V127.948Z" fill="#FCC874"/>
</svg>
