<svg width="1353" height="651" viewBox="0 0 1353 651" fill="none" xmlns="http://www.w3.org/2000/svg">
<path opacity="0.6" d="M445.041 69.5146C445.041 69.5146 -150.434 303.147 36.223 535.378C222.881 767.609 795.032 614.089 1207.42 390.63C1619.81 167.17 1089.83 -139.07 445.041 69.5146Z" fill="#FDBA4F"/>
<g opacity="0.9">
<path d="M569.048 505.526L521.511 518.275C518.456 519.1 515.672 520.715 513.436 522.957C511.2 525.199 509.592 527.989 508.773 531.049C507.953 534.108 507.951 537.33 508.766 540.391C509.581 543.452 511.185 546.245 513.417 548.49L517.276 552.344L518.038 553.19C518.177 553.339 518.255 553.534 518.255 553.737C518.255 553.941 518.177 554.136 518.038 554.285L517.331 555.039L514.639 557.725C513.98 558.421 513.618 559.348 513.631 560.307C513.644 561.266 514.031 562.183 514.709 562.861C515.387 563.538 516.303 563.924 517.262 563.936C518.22 563.947 519.145 563.583 519.839 562.922L523.845 558.911L532.298 550.449C532.787 549.966 533.448 549.695 534.135 549.695C534.823 549.695 535.483 549.966 535.973 550.449L536.175 550.652C536.657 551.142 536.928 551.803 536.928 552.491C536.928 553.18 536.657 553.84 536.175 554.331L503.283 587.398C502.911 588.176 502.825 589.06 503.039 589.896C503.252 590.732 503.752 591.466 504.452 591.97C505.151 592.474 506.005 592.716 506.865 592.654C507.724 592.591 508.535 592.228 509.154 591.629L532.821 567.935L561.009 539.752C561.501 539.273 562.16 539.005 562.846 539.005C563.533 539.005 564.192 539.273 564.684 539.752L564.803 539.872C565.282 540.364 565.549 541.024 565.549 541.711C565.549 542.398 565.282 543.058 564.803 543.551L523.367 585.107C522.792 585.847 522.521 586.78 522.609 587.713C522.698 588.647 523.139 589.512 523.843 590.131C524.547 590.749 525.46 591.076 526.396 591.043C527.332 591.01 528.221 590.621 528.88 589.955L540.318 578.503L541.329 577.583C541.479 577.444 541.676 577.366 541.88 577.366C542.085 577.366 542.282 577.444 542.432 577.583L543.405 578.503L548.266 583.369C550.507 585.611 553.298 587.223 556.358 588.044C559.419 588.864 562.641 588.864 565.702 588.042C568.762 587.221 571.552 585.608 573.793 583.365C576.033 581.123 577.645 578.329 578.465 575.265L591.172 527.657C591.995 524.591 591.996 521.362 591.176 518.295C590.356 515.229 588.743 512.433 586.5 510.189C584.257 507.945 581.462 506.333 578.399 505.514C575.335 504.696 572.11 504.7 569.048 505.526ZM541.752 548.987C541.355 549.384 540.849 549.655 540.298 549.765C539.747 549.874 539.177 549.818 538.658 549.603C538.139 549.388 537.696 549.023 537.384 548.556C537.072 548.089 536.905 547.539 536.905 546.977C536.905 546.415 537.072 545.865 537.384 545.398C537.696 544.931 538.139 544.566 538.658 544.351C539.177 544.136 539.747 544.08 540.298 544.189C540.849 544.299 541.355 544.57 541.752 544.967C542.016 545.231 542.227 545.544 542.37 545.889C542.513 546.233 542.587 546.603 542.587 546.977C542.587 547.351 542.513 547.72 542.37 548.065C542.227 548.41 542.016 548.723 541.752 548.987Z" fill="#F6E9FF"/>
<path d="M767.133 389.71L719.596 402.458C716.541 403.284 713.757 404.899 711.521 407.141C709.285 409.382 707.677 412.173 706.858 415.233C706.038 418.292 706.036 421.514 706.851 424.575C707.666 427.636 709.27 430.429 711.502 432.674L715.361 436.528L716.123 437.374C716.262 437.522 716.34 437.718 716.34 437.921C716.34 438.125 716.262 438.32 716.123 438.469L715.416 439.223L712.724 441.909C712.064 442.605 711.703 443.531 711.716 444.491C711.729 445.45 712.116 446.366 712.794 447.044C713.472 447.722 714.388 448.108 715.347 448.119C716.305 448.131 717.23 447.767 717.924 447.106L721.93 443.095L730.383 434.633C730.872 434.15 731.532 433.879 732.22 433.879C732.908 433.879 733.568 434.15 734.058 434.633L734.26 434.835C734.742 435.326 735.013 435.987 735.013 436.675C735.013 437.363 734.742 438.024 734.26 438.515L701.368 471.581C700.996 472.36 700.91 473.244 701.123 474.08C701.337 474.916 701.837 475.65 702.537 476.154C703.236 476.658 704.09 476.9 704.95 476.838C705.809 476.775 706.62 476.412 707.239 475.812L730.906 452.118L759.094 423.936C759.586 423.457 760.245 423.189 760.931 423.189C761.618 423.189 762.277 423.457 762.769 423.936L762.888 424.055C763.367 424.548 763.634 425.208 763.634 425.895C763.634 426.582 763.367 427.242 762.888 427.735L721.452 469.291C720.877 470.031 720.606 470.964 720.694 471.897C720.783 472.831 721.224 473.695 721.928 474.314C722.632 474.933 723.545 475.26 724.481 475.227C725.417 475.194 726.306 474.805 726.965 474.138L738.403 462.687L739.414 461.767C739.564 461.627 739.761 461.55 739.965 461.55C740.17 461.55 740.367 461.627 740.516 461.767L741.49 462.687L746.351 467.553C748.592 469.795 751.383 471.407 754.443 472.228C757.504 473.048 760.726 473.047 763.786 472.226C766.847 471.405 769.637 469.792 771.878 467.549C774.118 465.307 775.73 462.513 776.55 459.449L789.257 411.84C790.08 408.775 790.081 405.546 789.261 402.479C788.441 399.413 786.828 396.617 784.585 394.373C782.342 392.129 779.547 390.517 776.484 389.698C773.42 388.879 770.195 388.884 767.133 389.71ZM739.837 433.171C739.44 433.568 738.934 433.839 738.383 433.948C737.832 434.058 737.261 434.002 736.743 433.787C736.224 433.572 735.781 433.207 735.469 432.74C735.157 432.272 734.99 431.723 734.99 431.161C734.99 430.599 735.157 430.049 735.469 429.582C735.781 429.114 736.224 428.75 736.743 428.535C737.261 428.32 737.832 428.264 738.383 428.373C738.934 428.483 739.44 428.754 739.837 429.151C740.101 429.414 740.311 429.727 740.455 430.072C740.598 430.417 740.672 430.787 740.672 431.161C740.672 431.534 740.598 431.904 740.455 432.249C740.311 432.594 740.101 432.907 739.837 433.171Z" fill="#6D2D87"/>
<path d="M354.756 553.139L307.219 565.888C304.165 566.713 301.38 568.328 299.144 570.57C296.909 572.812 295.3 575.602 294.481 578.662C293.661 581.721 293.659 584.943 294.474 588.004C295.289 591.065 296.893 593.858 299.125 596.103L302.984 599.957L303.747 600.803C303.885 600.952 303.963 601.147 303.963 601.351C303.963 601.554 303.885 601.749 303.747 601.898L303.039 602.652L300.347 605.338C299.688 606.034 299.326 606.961 299.339 607.92C299.352 608.879 299.739 609.796 300.417 610.474C301.096 611.151 302.012 611.537 302.97 611.549C303.928 611.56 304.853 611.196 305.547 610.535L309.553 606.524L318.006 598.062C318.496 597.579 319.156 597.308 319.843 597.308C320.531 597.308 321.191 597.579 321.681 598.062L321.883 598.265C322.365 598.755 322.636 599.416 322.636 600.104C322.636 600.793 322.365 601.453 321.883 601.944L288.991 635.011C288.62 635.789 288.533 636.673 288.747 637.509C288.96 638.345 289.46 639.079 290.16 639.583C290.859 640.087 291.713 640.329 292.573 640.267C293.432 640.204 294.243 639.841 294.862 639.242L318.529 615.548L346.717 587.365C347.209 586.886 347.868 586.618 348.555 586.618C349.241 586.618 349.9 586.886 350.392 587.365L350.511 587.485C350.99 587.977 351.257 588.637 351.257 589.324C351.257 590.011 350.99 590.671 350.511 591.164L309.075 632.72C308.5 633.461 308.229 634.393 308.317 635.326C308.406 636.26 308.847 637.125 309.551 637.744C310.255 638.362 311.168 638.689 312.104 638.656C313.04 638.624 313.929 638.234 314.588 637.568L326.026 626.116L327.037 625.196C327.187 625.057 327.384 624.979 327.588 624.979C327.793 624.979 327.99 625.057 328.14 625.196L329.114 626.116L333.974 630.982C336.215 633.224 339.006 634.836 342.066 635.657C345.127 636.477 348.349 636.477 351.41 635.656C354.47 634.834 357.261 633.221 359.501 630.979C361.741 628.736 363.353 625.942 364.173 622.878L376.88 575.27C377.703 572.204 377.704 568.975 376.884 565.908C376.064 562.842 374.451 560.046 372.208 557.802C369.965 555.558 367.17 553.946 364.107 553.127C361.043 552.309 357.818 552.313 354.756 553.139ZM327.46 596.6C327.063 596.997 326.557 597.268 326.006 597.378C325.455 597.487 324.885 597.431 324.366 597.216C323.847 597.001 323.404 596.636 323.092 596.169C322.78 595.702 322.613 595.152 322.613 594.59C322.613 594.028 322.78 593.478 323.092 593.011C323.404 592.544 323.847 592.179 324.366 591.964C324.885 591.749 325.455 591.693 326.006 591.802C326.557 591.912 327.063 592.183 327.46 592.58C327.724 592.844 327.935 593.157 328.078 593.502C328.221 593.847 328.295 594.216 328.295 594.59C328.295 594.964 328.221 595.333 328.078 595.678C327.935 596.023 327.724 596.336 327.46 596.6Z" fill="#6D2D87"/>
<path d="M981.425 416.734L933.888 429.482C930.833 430.308 928.049 431.923 925.813 434.164C923.577 436.406 921.969 439.197 921.15 442.256C920.33 445.316 920.327 448.538 921.143 451.599C921.958 454.66 923.562 457.453 925.794 459.698L929.653 463.552L930.415 464.398C930.554 464.546 930.631 464.742 930.631 464.945C930.631 465.149 930.554 465.344 930.415 465.493L929.708 466.247L927.016 468.933C926.356 469.629 925.995 470.555 926.008 471.515C926.021 472.474 926.408 473.39 927.086 474.068C927.764 474.746 928.68 475.132 929.639 475.143C930.597 475.155 931.522 474.791 932.216 474.129L936.222 470.119L944.674 461.657C945.164 461.174 945.824 460.903 946.512 460.903C947.2 460.903 947.86 461.174 948.35 461.657L948.552 461.859C949.034 462.35 949.305 463.011 949.305 463.699C949.305 464.387 949.034 465.048 948.552 465.539L915.66 498.605C915.288 499.384 915.202 500.268 915.415 501.104C915.629 501.94 916.129 502.674 916.829 503.178C917.528 503.682 918.382 503.924 919.242 503.861C920.101 503.799 920.911 503.436 921.531 502.836L945.198 479.142L973.386 450.96C973.878 450.481 974.537 450.213 975.223 450.213C975.91 450.213 976.569 450.481 977.061 450.96L977.18 451.079C977.658 451.572 977.926 452.232 977.926 452.919C977.926 453.606 977.658 454.266 977.18 454.758L935.744 496.315C935.169 497.055 934.898 497.987 934.986 498.921C935.075 499.855 935.516 500.719 936.22 501.338C936.923 501.957 937.837 502.284 938.773 502.251C939.709 502.218 940.598 501.829 941.257 501.162L952.695 489.711L953.706 488.791C953.856 488.651 954.053 488.574 954.257 488.574C954.462 488.574 954.659 488.651 954.808 488.791L955.782 489.711L960.643 494.577C962.884 496.819 965.675 498.431 968.735 499.251C971.796 500.072 975.018 500.071 978.078 499.25C981.139 498.429 983.929 496.816 986.17 494.573C988.41 492.33 990.022 489.537 990.842 486.473L1003.55 438.864C1004.37 435.799 1004.37 432.57 1003.55 429.503C1002.73 426.437 1001.12 423.641 998.877 421.397C996.633 419.153 993.839 417.541 990.776 416.722C987.712 415.903 984.487 415.908 981.425 416.734ZM954.129 460.194C953.731 460.592 953.226 460.863 952.675 460.972C952.124 461.082 951.553 461.026 951.035 460.811C950.516 460.595 950.073 460.231 949.761 459.764C949.449 459.296 949.282 458.747 949.282 458.185C949.282 457.623 949.449 457.073 949.761 456.606C950.073 456.138 950.516 455.774 951.035 455.559C951.553 455.344 952.124 455.287 952.675 455.397C953.226 455.507 953.731 455.777 954.129 456.175C954.393 456.438 954.603 456.751 954.747 457.096C954.89 457.441 954.964 457.811 954.964 458.185C954.964 458.558 954.89 458.928 954.747 459.273C954.603 459.618 954.393 459.931 954.129 460.194Z" fill="#6D2D87"/>
<path d="M569.048 281.449L521.511 294.197C518.456 295.023 515.672 296.637 513.436 298.879C511.2 301.121 509.592 303.911 508.773 306.971C507.953 310.031 507.951 313.252 508.766 316.313C509.581 319.374 511.185 322.167 513.417 324.412L517.276 328.266L518.038 329.113C518.177 329.261 518.255 329.457 518.255 329.66C518.255 329.863 518.177 330.059 518.038 330.207L517.331 330.961L514.639 333.647C513.98 334.343 513.618 335.27 513.631 336.229C513.644 337.189 514.031 338.105 514.709 338.783C515.387 339.461 516.303 339.846 517.262 339.858C518.22 339.869 519.145 339.506 519.839 338.844L523.845 334.834L532.298 326.372C532.787 325.888 533.448 325.618 534.135 325.618C534.823 325.618 535.483 325.888 535.973 326.372L536.175 326.574C536.657 327.064 536.928 327.725 536.928 328.414C536.928 329.102 536.657 329.763 536.175 330.253L503.283 363.32C502.911 364.098 502.825 364.983 503.039 365.819C503.252 366.654 503.752 367.388 504.452 367.893C505.151 368.397 506.005 368.639 506.865 368.576C507.724 368.514 508.535 368.151 509.154 367.551L532.821 343.857L561.009 315.674C561.501 315.196 562.16 314.928 562.846 314.928C563.533 314.928 564.192 315.196 564.684 315.674L564.803 315.794C565.282 316.287 565.549 316.946 565.549 317.633C565.549 318.32 565.282 318.98 564.803 319.473L523.367 361.03C522.792 361.77 522.521 362.702 522.609 363.636C522.698 364.569 523.139 365.434 523.843 366.053C524.547 366.672 525.46 366.998 526.396 366.966C527.332 366.933 528.221 366.543 528.88 365.877L540.318 354.425L541.329 353.506C541.479 353.366 541.676 353.288 541.88 353.288C542.085 353.288 542.282 353.366 542.432 353.506L543.405 354.425L548.266 359.291C550.507 361.533 553.298 363.146 556.358 363.966C559.419 364.786 562.641 364.786 565.702 363.965C568.762 363.144 571.552 361.531 573.793 359.288C576.033 357.045 577.645 354.251 578.465 351.188L591.172 303.579C591.995 300.513 591.996 297.284 591.176 294.218C590.356 291.151 588.743 288.355 586.5 286.111C584.257 283.868 581.462 282.255 578.399 281.437C575.335 280.618 572.11 280.622 569.048 281.449ZM541.752 324.909C541.355 325.307 540.849 325.577 540.298 325.687C539.747 325.797 539.177 325.74 538.658 325.525C538.139 325.31 537.696 324.946 537.384 324.478C537.072 324.011 536.905 323.461 536.905 322.899C536.905 322.337 537.072 321.788 537.384 321.32C537.696 320.853 538.139 320.489 538.658 320.274C539.177 320.058 539.747 320.002 540.298 320.112C540.849 320.221 541.355 320.492 541.752 320.89C542.016 321.153 542.227 321.466 542.37 321.811C542.513 322.156 542.587 322.526 542.587 322.899C542.587 323.273 542.513 323.643 542.37 323.988C542.227 324.333 542.016 324.646 541.752 324.909Z" fill="#6D2D87"/>
<path d="M767.133 209.448L719.596 222.197C716.541 223.022 713.757 224.637 711.521 226.879C709.285 229.121 707.677 231.911 706.858 234.971C706.038 238.031 706.036 241.252 706.851 244.313C707.666 247.374 709.27 250.167 711.502 252.412L715.361 256.266L716.123 257.112C716.262 257.261 716.34 257.456 716.34 257.66C716.34 257.863 716.262 258.059 716.123 258.207L715.416 258.961L712.724 261.647C712.064 262.343 711.703 263.27 711.716 264.229C711.729 265.188 712.116 266.105 712.794 266.783C713.472 267.46 714.388 267.846 715.347 267.858C716.305 267.869 717.23 267.505 717.924 266.844L721.93 262.833L730.383 254.371C730.872 253.888 731.532 253.617 732.22 253.617C732.908 253.617 733.568 253.888 734.058 254.371L734.26 254.574C734.742 255.064 735.013 255.725 735.013 256.413C735.013 257.102 734.742 257.762 734.26 258.253L701.368 291.32C700.996 292.098 700.91 292.982 701.123 293.818C701.337 294.654 701.837 295.388 702.537 295.892C703.236 296.396 704.09 296.638 704.95 296.576C705.809 296.513 706.62 296.151 707.239 295.551L730.906 271.857L759.094 243.674C759.586 243.195 760.245 242.928 760.931 242.928C761.618 242.928 762.277 243.195 762.769 243.674L762.888 243.794C763.367 244.286 763.634 244.946 763.634 245.633C763.634 246.32 763.367 246.98 762.888 247.473L721.452 289.029C720.877 289.77 720.606 290.702 720.694 291.635C720.783 292.569 721.224 293.434 721.928 294.053C722.632 294.672 723.545 294.998 724.481 294.965C725.417 294.933 726.306 294.543 726.965 293.877L738.403 282.425L739.414 281.505C739.564 281.366 739.761 281.288 739.965 281.288C740.17 281.288 740.367 281.366 740.516 281.505L741.49 282.425L746.351 287.291C748.592 289.533 751.383 291.145 754.443 291.966C757.504 292.786 760.726 292.786 763.786 291.965C766.847 291.143 769.637 289.53 771.878 287.288C774.118 285.045 775.73 282.251 776.55 279.187L789.257 231.579C790.08 228.513 790.081 225.284 789.261 222.218C788.441 219.151 786.828 216.355 784.585 214.111C782.342 211.867 779.547 210.255 776.484 209.436C773.42 208.618 770.195 208.622 767.133 209.448ZM739.837 252.909C739.44 253.306 738.934 253.577 738.383 253.687C737.832 253.796 737.261 253.74 736.743 253.525C736.224 253.31 735.781 252.945 735.469 252.478C735.157 252.011 734.99 251.461 734.99 250.899C734.99 250.337 735.157 249.787 735.469 249.32C735.781 248.853 736.224 248.488 736.743 248.273C737.261 248.058 737.832 248.002 738.383 248.112C738.934 248.221 739.44 248.492 739.837 248.889C740.101 249.153 740.311 249.466 740.455 249.811C740.598 250.156 740.672 250.525 740.672 250.899C740.672 251.273 740.598 251.643 740.455 251.987C740.311 252.332 740.101 252.646 739.837 252.909Z" fill="#2F2B33"/>
<path d="M354.756 372.878L307.219 385.626C304.165 386.452 301.38 388.066 299.144 390.308C296.909 392.55 295.3 395.34 294.481 398.4C293.661 401.46 293.659 404.681 294.474 407.742C295.289 410.803 296.893 413.596 299.125 415.841L302.984 419.695L303.747 420.542C303.885 420.69 303.963 420.886 303.963 421.089C303.963 421.292 303.885 421.488 303.747 421.636L303.039 422.39L300.347 425.076C299.688 425.772 299.326 426.699 299.339 427.658C299.352 428.618 299.739 429.534 300.417 430.212C301.096 430.89 302.012 431.275 302.97 431.287C303.928 431.298 304.853 430.934 305.547 430.273L309.553 426.263L318.006 417.801C318.496 417.317 319.156 417.047 319.843 417.047C320.531 417.047 321.191 417.317 321.681 417.801L321.883 418.003C322.365 418.493 322.636 419.154 322.636 419.842C322.636 420.531 322.365 421.192 321.883 421.682L288.991 454.749C288.62 455.527 288.533 456.412 288.747 457.247C288.96 458.083 289.46 458.817 290.16 459.321C290.859 459.826 291.713 460.067 292.573 460.005C293.432 459.943 294.243 459.58 294.862 458.98L318.529 435.286L346.717 407.103C347.209 406.625 347.868 406.357 348.555 406.357C349.241 406.357 349.9 406.625 350.392 407.103L350.511 407.223C350.99 407.716 351.257 408.375 351.257 409.062C351.257 409.749 350.99 410.409 350.511 410.902L309.075 452.459C308.5 453.199 308.229 454.131 308.317 455.065C308.406 455.998 308.847 456.863 309.551 457.482C310.255 458.101 311.168 458.427 312.104 458.395C313.04 458.362 313.929 457.972 314.588 457.306L326.026 445.854L327.037 444.935C327.187 444.795 327.384 444.717 327.588 444.717C327.793 444.717 327.99 444.795 328.14 444.935L329.114 445.854L333.974 450.72C336.215 452.962 339.006 454.575 342.066 455.395C345.127 456.215 348.349 456.215 351.41 455.394C354.47 454.573 357.261 452.96 359.501 450.717C361.741 448.474 363.353 445.68 364.173 442.617L376.88 395.008C377.703 391.942 377.704 388.713 376.884 385.647C376.064 382.58 374.451 379.784 372.208 377.54C369.965 375.297 367.17 373.684 364.107 372.866C361.043 372.047 357.818 372.051 354.756 372.878ZM327.46 416.338C327.063 416.736 326.557 417.006 326.006 417.116C325.455 417.226 324.885 417.169 324.366 416.954C323.847 416.739 323.404 416.375 323.092 415.907C322.78 415.44 322.613 414.89 322.613 414.328C322.613 413.766 322.78 413.217 323.092 412.749C323.404 412.282 323.847 411.918 324.366 411.702C324.885 411.487 325.455 411.431 326.006 411.541C326.557 411.65 327.063 411.921 327.46 412.319C327.724 412.582 327.935 412.895 328.078 413.24C328.221 413.585 328.295 413.955 328.295 414.328C328.295 414.702 328.221 415.072 328.078 415.417C327.935 415.762 327.724 416.075 327.46 416.338Z" fill="#6D2D87"/>
<path d="M140.464 463.919L92.9275 476.667C89.8726 477.493 87.0879 479.108 84.8523 481.35C82.6166 483.591 81.0085 486.382 80.1888 489.442C79.3692 492.501 79.3668 495.723 80.1818 498.784C80.9969 501.845 82.6009 504.638 84.8332 506.883L88.692 510.737L89.4546 511.583C89.5935 511.731 89.6707 511.927 89.6707 512.13C89.6707 512.334 89.5935 512.529 89.4546 512.678L88.7471 513.432L86.0552 516.118C85.3956 516.814 85.0339 517.74 85.047 518.7C85.0601 519.659 85.447 520.575 86.1253 521.253C86.8036 521.931 87.7196 522.317 88.6779 522.328C89.6362 522.34 90.5611 521.976 91.2553 521.315L95.2611 517.304L103.714 508.842C104.204 508.359 104.864 508.088 105.551 508.088C106.239 508.088 106.899 508.359 107.389 508.842L107.591 509.044C108.073 509.535 108.344 510.196 108.344 510.884C108.344 511.572 108.073 512.233 107.591 512.724L74.6993 545.79C74.3276 546.569 74.241 547.453 74.4547 548.289C74.6683 549.125 75.1685 549.859 75.8679 550.363C76.5673 550.867 77.4214 551.109 78.2809 551.047C79.1405 550.984 79.9507 550.621 80.5702 550.021L104.237 526.327L132.425 498.145C132.917 497.666 133.576 497.398 134.263 497.398C134.949 497.398 135.608 497.666 136.1 498.145L136.22 498.264C136.698 498.757 136.965 499.417 136.965 500.104C136.965 500.791 136.698 501.451 136.22 501.944L94.7834 543.5C94.2082 544.24 93.9371 545.173 94.0255 546.106C94.1139 547.04 94.5551 547.904 95.2589 548.523C95.9627 549.142 96.8761 549.469 97.8123 549.436C98.7485 549.403 99.6369 549.014 100.296 548.347L111.735 536.896L112.745 535.976C112.895 535.836 113.092 535.759 113.296 535.759C113.501 535.759 113.698 535.836 113.848 535.976L114.822 536.896L119.682 541.762C121.923 544.004 124.714 545.616 127.774 546.437C130.835 547.257 134.057 547.256 137.118 546.435C140.178 545.614 142.969 544.001 145.209 541.758C147.45 539.516 149.061 536.722 149.882 533.658L162.588 486.049C163.411 482.984 163.412 479.755 162.592 476.688C161.772 473.622 160.159 470.826 157.916 468.582C155.673 466.338 152.879 464.726 149.815 463.907C146.751 463.088 143.526 463.093 140.464 463.919ZM113.168 507.38C112.771 507.777 112.265 508.048 111.714 508.157C111.164 508.267 110.593 508.211 110.074 507.996C109.555 507.78 109.112 507.416 108.8 506.949C108.488 506.481 108.321 505.932 108.321 505.37C108.321 504.808 108.488 504.258 108.8 503.791C109.112 503.323 109.555 502.959 110.074 502.744C110.593 502.529 111.164 502.473 111.714 502.582C112.265 502.692 112.771 502.963 113.168 503.36C113.433 503.623 113.643 503.936 113.786 504.281C113.929 504.626 114.003 504.996 114.003 505.37C114.003 505.743 113.929 506.113 113.786 506.458C113.643 506.803 113.433 507.116 113.168 507.38Z" fill="#6D2D87"/>
<path d="M981.425 236.472L933.888 249.22C930.833 250.046 928.049 251.661 925.813 253.902C923.577 256.144 921.969 258.935 921.15 261.995C920.33 265.054 920.327 268.276 921.143 271.337C921.958 274.398 923.562 277.191 925.794 279.436L929.653 283.29L930.415 284.136C930.554 284.284 930.631 284.48 930.631 284.683C930.631 284.887 930.554 285.082 930.415 285.231L929.708 285.985L927.016 288.671C926.356 289.367 925.995 290.293 926.008 291.253C926.021 292.212 926.408 293.128 927.086 293.806C927.764 294.484 928.68 294.87 929.639 294.881C930.597 294.893 931.522 294.529 932.216 293.867L936.222 289.857L944.674 281.395C945.164 280.912 945.824 280.641 946.512 280.641C947.2 280.641 947.86 280.912 948.35 281.395L948.552 281.597C949.034 282.088 949.305 282.749 949.305 283.437C949.305 284.125 949.034 284.786 948.552 285.277L915.66 318.343C915.288 319.122 915.202 320.006 915.415 320.842C915.629 321.678 916.129 322.412 916.829 322.916C917.528 323.42 918.382 323.662 919.242 323.6C920.101 323.537 920.911 323.174 921.531 322.574L945.198 298.88L973.386 270.698C973.878 270.219 974.537 269.951 975.223 269.951C975.91 269.951 976.569 270.219 977.061 270.698L977.18 270.817C977.658 271.31 977.926 271.97 977.926 272.657C977.926 273.344 977.658 274.004 977.18 274.497L935.744 316.053C935.169 316.793 934.898 317.725 934.986 318.659C935.075 319.593 935.516 320.457 936.22 321.076C936.923 321.695 937.837 322.022 938.773 321.989C939.709 321.956 940.598 321.567 941.257 320.9L952.695 309.449L953.706 308.529C953.856 308.389 954.053 308.312 954.257 308.312C954.462 308.312 954.659 308.389 954.808 308.529L955.782 309.449L960.643 314.315C962.884 316.557 965.675 318.169 968.735 318.989C971.796 319.81 975.018 319.809 978.078 318.988C981.139 318.167 983.929 316.554 986.17 314.311C988.41 312.068 990.022 309.275 990.842 306.211L1003.55 258.602C1004.37 255.537 1004.37 252.308 1003.55 249.241C1002.73 246.175 1001.12 243.379 998.877 241.135C996.633 238.891 993.839 237.279 990.776 236.46C987.712 235.641 984.487 235.646 981.425 236.472ZM954.129 279.933C953.731 280.33 953.226 280.601 952.675 280.71C952.124 280.82 951.553 280.764 951.035 280.549C950.516 280.333 950.073 279.969 949.761 279.502C949.449 279.034 949.282 278.485 949.282 277.923C949.282 277.361 949.449 276.811 949.761 276.344C950.073 275.876 950.516 275.512 951.035 275.297C951.553 275.082 952.124 275.026 952.675 275.135C953.226 275.245 953.731 275.516 954.129 275.913C954.393 276.176 954.603 276.489 954.747 276.834C954.89 277.179 954.964 277.549 954.964 277.923C954.964 278.296 954.89 278.666 954.747 279.011C954.603 279.356 954.393 279.669 954.129 279.933Z" fill="#F6E9FF"/>
<path d="M569.048 101.187L521.511 113.935C518.456 114.761 515.672 116.375 513.436 118.617C511.2 120.859 509.592 123.649 508.773 126.709C507.953 129.769 507.951 132.99 508.766 136.051C509.581 139.112 511.185 141.905 513.417 144.15L517.276 148.004L518.038 148.851C518.177 148.999 518.255 149.195 518.255 149.398C518.255 149.601 518.177 149.797 518.038 149.945L517.331 150.699L514.639 153.385C513.98 154.081 513.618 155.008 513.631 155.967C513.644 156.927 514.031 157.843 514.709 158.521C515.387 159.199 516.303 159.585 517.262 159.596C518.22 159.607 519.145 159.244 519.839 158.582L523.845 154.572L532.298 146.11C532.787 145.627 533.448 145.356 534.135 145.356C534.823 145.356 535.483 145.627 535.973 146.11L536.175 146.312C536.657 146.802 536.928 147.463 536.928 148.152C536.928 148.84 536.657 149.501 536.175 149.991L503.283 183.058C502.911 183.836 502.825 184.721 503.039 185.557C503.252 186.392 503.752 187.126 504.452 187.631C505.151 188.135 506.005 188.377 506.865 188.314C507.724 188.252 508.535 187.889 509.154 187.289L532.821 163.595L561.009 135.412C561.501 134.934 562.16 134.666 562.846 134.666C563.533 134.666 564.192 134.934 564.684 135.412L564.803 135.532C565.282 136.025 565.549 136.685 565.549 137.372C565.549 138.058 565.282 138.718 564.803 139.211L523.367 180.768C522.792 181.508 522.521 182.44 522.609 183.374C522.698 184.307 523.139 185.172 523.843 185.791C524.547 186.41 525.46 186.736 526.396 186.704C527.332 186.671 528.221 186.281 528.88 185.615L540.318 174.163L541.329 173.244C541.479 173.104 541.676 173.026 541.88 173.026C542.085 173.026 542.282 173.104 542.432 173.244L543.405 174.163L548.266 179.029C550.507 181.271 553.298 182.884 556.358 183.704C559.419 184.524 562.641 184.524 565.702 183.703C568.762 182.882 571.552 181.269 573.793 179.026C576.033 176.783 577.645 173.99 578.465 170.926L591.172 123.317C591.995 120.251 591.996 117.022 591.176 113.956C590.356 110.889 588.743 108.093 586.5 105.849C584.257 103.606 581.462 101.993 578.399 101.175C575.335 100.356 572.11 100.36 569.048 101.187ZM541.752 144.647C541.355 145.045 540.849 145.315 540.298 145.425C539.747 145.535 539.177 145.478 538.658 145.263C538.139 145.048 537.696 144.684 537.384 144.216C537.072 143.749 536.905 143.199 536.905 142.637C536.905 142.075 537.072 141.526 537.384 141.058C537.696 140.591 538.139 140.227 538.658 140.012C539.177 139.796 539.747 139.74 540.298 139.85C540.849 139.959 541.355 140.23 541.752 140.628C542.016 140.891 542.227 141.204 542.37 141.549C542.513 141.894 542.587 142.264 542.587 142.637C542.587 143.011 542.513 143.381 542.37 143.726C542.227 144.071 542.016 144.384 541.752 144.647Z" fill="#6D2D87"/>
<path d="M767.133 29.1866L719.596 41.935C716.541 42.7607 713.757 44.3752 711.521 46.6171C709.285 48.8589 707.677 51.6494 706.858 54.7091C706.038 57.7689 706.036 60.9905 706.851 64.0514C707.666 67.1124 709.27 69.9052 711.502 72.1504L715.361 76.0044L716.123 76.8506C716.262 76.9989 716.34 77.1946 716.34 77.3979C716.34 77.6012 716.262 77.7969 716.123 77.9452L715.416 78.6994L712.724 81.3852C712.064 82.0814 711.703 83.008 711.716 83.9674C711.729 84.9267 712.116 85.843 712.794 86.5209C713.472 87.1988 714.388 87.5845 715.347 87.596C716.305 87.6074 717.23 87.2436 717.924 86.5821L721.93 82.5718L730.383 74.1096C730.872 73.6265 731.532 73.3557 732.22 73.3557C732.908 73.3557 733.568 73.6265 734.058 74.1096L734.26 74.312C734.742 74.8024 735.013 75.4632 735.013 76.1516C735.013 76.84 734.742 77.5007 734.26 77.9912L701.368 111.058C700.996 111.836 700.91 112.721 701.123 113.557C701.337 114.392 701.837 115.126 702.537 115.631C703.236 116.135 704.09 116.377 704.95 116.314C705.809 116.252 706.62 115.889 707.239 115.289L730.906 91.595L759.094 63.4123C759.586 62.9336 760.245 62.6658 760.931 62.6658C761.618 62.6658 762.277 62.9336 762.769 63.4123L762.888 63.5319C763.367 64.0246 763.634 64.6845 763.634 65.3715C763.634 66.0585 763.367 66.7184 762.888 67.2111L721.452 108.768C720.877 109.508 720.606 110.44 720.694 111.374C720.783 112.307 721.224 113.172 721.928 113.791C722.632 114.41 723.545 114.736 724.481 114.704C725.417 114.671 726.306 114.281 726.965 113.615L738.403 102.163L739.414 101.244C739.564 101.104 739.761 101.026 739.965 101.026C740.17 101.026 740.367 101.104 740.516 101.244L741.49 102.163L746.351 107.029C748.592 109.271 751.383 110.884 754.443 111.704C757.504 112.524 760.726 112.524 763.786 111.703C766.847 110.882 769.637 109.269 771.878 107.026C774.118 104.783 775.73 101.99 776.55 98.9258L789.257 51.317C790.08 48.2512 790.081 45.0224 789.261 41.9559C788.441 38.8893 786.828 36.0933 784.585 33.8495C782.342 31.6057 779.547 29.9932 776.484 29.1746C773.42 28.356 770.195 28.3602 767.133 29.1866ZM739.837 72.6471C739.44 73.0446 738.934 73.3153 738.383 73.4249C737.832 73.5346 737.261 73.4783 736.743 73.2632C736.224 73.0481 735.781 72.6838 735.469 72.2164C735.157 71.749 734.99 71.1995 734.99 70.6374C734.99 70.0752 735.157 69.5257 735.469 69.0583C735.781 68.591 736.224 68.2267 736.743 68.0115C737.261 67.7964 737.832 67.7401 738.383 67.8498C738.934 67.9594 739.44 68.2301 739.837 68.6276C740.101 68.8909 740.311 69.204 740.455 69.549C740.598 69.8939 740.672 70.2638 740.672 70.6374C740.672 71.011 740.598 71.3809 740.455 71.7258C740.311 72.0707 740.101 72.3838 739.837 72.6471Z" fill="#F6E9FF"/>
<path d="M354.756 192.616L307.219 205.364C304.165 206.19 301.38 207.804 299.144 210.046C296.909 212.288 295.3 215.079 294.481 218.138C293.661 221.198 293.659 224.42 294.474 227.481C295.289 230.542 296.893 233.334 299.125 235.58L302.984 239.434L303.747 240.28C303.885 240.428 303.963 240.624 303.963 240.827C303.963 241.03 303.885 241.226 303.747 241.374L303.039 242.129L300.347 244.814C299.688 245.511 299.326 246.437 299.339 247.397C299.352 248.356 299.739 249.272 300.417 249.95C301.096 250.628 302.012 251.014 302.97 251.025C303.928 251.037 304.853 250.673 305.547 250.011L309.553 246.001L318.006 237.539C318.496 237.056 319.156 236.785 319.843 236.785C320.531 236.785 321.191 237.056 321.681 237.539L321.883 237.741C322.365 238.232 322.636 238.892 322.636 239.581C322.636 240.269 322.365 240.93 321.883 241.42L288.991 274.487C288.62 275.266 288.533 276.15 288.747 276.986C288.96 277.822 289.46 278.556 290.16 279.06C290.859 279.564 291.713 279.806 292.573 279.743C293.432 279.681 294.243 279.318 294.862 278.718L318.529 255.024L346.717 226.842C347.209 226.363 347.868 226.095 348.555 226.095C349.241 226.095 349.9 226.363 350.392 226.842L350.511 226.961C350.99 227.454 351.257 228.114 351.257 228.801C351.257 229.488 350.99 230.148 350.511 230.64L309.075 272.197C308.5 272.937 308.229 273.869 308.317 274.803C308.406 275.737 308.847 276.601 309.551 277.22C310.255 277.839 311.168 278.166 312.104 278.133C313.04 278.1 313.929 277.711 314.588 277.044L326.026 265.593L327.037 264.673C327.187 264.533 327.384 264.456 327.588 264.456C327.793 264.456 327.99 264.533 328.14 264.673L329.114 265.593L333.974 270.458C336.215 272.701 339.006 274.313 342.066 275.133C345.127 275.954 348.349 275.953 351.41 275.132C354.47 274.311 357.261 272.698 359.501 270.455C361.741 268.212 363.353 265.419 364.173 262.355L376.88 214.746C377.703 211.68 377.704 208.452 376.884 205.385C376.064 202.319 374.451 199.523 372.208 197.279C369.965 195.035 367.17 193.422 364.107 192.604C361.043 191.785 357.818 191.789 354.756 192.616ZM327.46 236.076C327.063 236.474 326.557 236.744 326.006 236.854C325.455 236.964 324.885 236.908 324.366 236.692C323.847 236.477 323.404 236.113 323.092 235.646C322.78 235.178 322.613 234.629 322.613 234.067C322.613 233.504 322.78 232.955 323.092 232.488C323.404 232.02 323.847 231.656 324.366 231.441C324.885 231.226 325.455 231.169 326.006 231.279C326.557 231.389 327.063 231.659 327.46 232.057C327.724 232.32 327.935 232.633 328.078 232.978C328.221 233.323 328.295 233.693 328.295 234.067C328.295 234.44 328.221 234.81 328.078 235.155C327.935 235.5 327.724 235.813 327.46 236.076Z" fill="#F6E9FF"/>
<path d="M140.464 283.657L92.9275 296.405C89.8726 297.231 87.0879 298.846 84.8523 301.088C82.6166 303.329 81.0085 306.12 80.1888 309.18C79.3692 312.239 79.3668 315.461 80.1818 318.522C80.9969 321.583 82.6009 324.376 84.8332 326.621L88.692 330.475L89.4546 331.321C89.5935 331.469 89.6707 331.665 89.6707 331.868C89.6707 332.072 89.5935 332.267 89.4546 332.416L88.7471 333.17L86.0552 335.856C85.3956 336.552 85.0339 337.478 85.047 338.438C85.0601 339.397 85.447 340.314 86.1253 340.991C86.8036 341.669 87.7196 342.055 88.6779 342.066C89.6362 342.078 90.5611 341.714 91.2553 341.053L95.2611 337.042L103.714 328.58C104.204 328.097 104.864 327.826 105.551 327.826C106.239 327.826 106.899 328.097 107.389 328.58L107.591 328.782C108.073 329.273 108.344 329.934 108.344 330.622C108.344 331.31 108.073 331.971 107.591 332.462L74.6993 365.528C74.3276 366.307 74.241 367.191 74.4547 368.027C74.6683 368.863 75.1685 369.597 75.8679 370.101C76.5673 370.605 77.4214 370.847 78.2809 370.785C79.1405 370.722 79.9507 370.359 80.5702 369.759L104.237 346.065L132.425 317.883C132.917 317.404 133.576 317.136 134.263 317.136C134.949 317.136 135.608 317.404 136.1 317.883L136.22 318.002C136.698 318.495 136.965 319.155 136.965 319.842C136.965 320.529 136.698 321.189 136.22 321.682L94.7834 363.238C94.2082 363.978 93.9371 364.911 94.0255 365.844C94.1139 366.778 94.5551 367.642 95.2589 368.261C95.9627 368.88 96.8761 369.207 97.8123 369.174C98.7485 369.141 99.6369 368.752 100.296 368.085L111.735 356.634L112.745 355.714C112.895 355.574 113.092 355.497 113.296 355.497C113.501 355.497 113.698 355.574 113.848 355.714L114.822 356.634L119.682 361.5C121.923 363.742 124.714 365.354 127.774 366.175C130.835 366.995 134.057 366.995 137.118 366.173C140.178 365.352 142.969 363.739 145.209 361.496C147.45 359.254 149.061 356.46 149.882 353.396L162.588 305.787C163.411 302.722 163.412 299.493 162.592 296.426C161.772 293.36 160.159 290.564 157.916 288.32C155.673 286.076 152.879 284.464 149.815 283.645C146.751 282.826 143.526 282.831 140.464 283.657ZM113.168 327.118C112.771 327.515 112.265 327.786 111.714 327.895C111.164 328.005 110.593 327.949 110.074 327.734C109.555 327.519 109.112 327.154 108.8 326.687C108.488 326.219 108.321 325.67 108.321 325.108C108.321 324.546 108.488 323.996 108.8 323.529C109.112 323.061 109.555 322.697 110.074 322.482C110.593 322.267 111.164 322.211 111.714 322.32C112.265 322.43 112.771 322.701 113.168 323.098C113.433 323.361 113.643 323.674 113.786 324.019C113.929 324.364 114.003 324.734 114.003 325.108C114.003 325.481 113.929 325.851 113.786 326.196C113.643 326.541 113.433 326.854 113.168 327.118Z" fill="#2F2B33"/>
<path d="M981.425 56.2103L933.888 68.9587C930.833 69.7843 928.049 71.3989 925.813 73.6408C923.577 75.8826 921.969 78.6731 921.15 81.7328C920.33 84.7925 920.327 88.0141 921.143 91.0751C921.958 94.136 923.562 96.9289 925.794 99.1741L929.653 103.028L930.415 103.874C930.554 104.023 930.631 104.218 930.631 104.422C930.631 104.625 930.554 104.821 930.415 104.969L929.708 105.723L927.016 108.409C926.356 109.105 925.995 110.032 926.008 110.991C926.021 111.95 926.408 112.867 927.086 113.545C927.764 114.222 928.68 114.608 929.639 114.62C930.597 114.631 931.522 114.267 932.216 113.606L936.222 109.595L944.674 101.133C945.164 100.65 945.824 100.379 946.512 100.379C947.2 100.379 947.86 100.65 948.35 101.133L948.552 101.336C949.034 101.826 949.305 102.487 949.305 103.175C949.305 103.864 949.034 104.524 948.552 105.015L915.66 138.082C915.288 138.86 915.202 139.744 915.415 140.58C915.629 141.416 916.129 142.15 916.829 142.654C917.528 143.158 918.382 143.4 919.242 143.338C920.101 143.275 920.911 142.913 921.531 142.313L945.198 118.619L973.386 90.436C973.878 89.9573 974.537 89.6895 975.223 89.6895C975.91 89.6895 976.569 89.9573 977.061 90.436L977.18 90.5556C977.658 91.0483 977.926 91.7082 977.926 92.3952C977.926 93.0822 977.658 93.7421 977.18 94.2348L935.744 135.791C935.169 136.532 934.898 137.464 934.986 138.397C935.075 139.331 935.516 140.196 936.22 140.815C936.923 141.434 937.837 141.76 938.773 141.727C939.709 141.695 940.598 141.305 941.257 140.639L952.695 129.187L953.706 128.267C953.856 128.128 954.053 128.05 954.257 128.05C954.462 128.05 954.659 128.128 954.808 128.267L955.782 129.187L960.643 134.053C962.884 136.295 965.675 137.907 968.735 138.728C971.796 139.548 975.018 139.548 978.078 138.727C981.139 137.905 983.929 136.292 986.17 134.05C988.41 131.807 990.022 129.013 990.842 125.949L1003.55 78.3407C1004.37 75.2749 1004.37 72.0461 1003.55 68.9795C1002.73 65.913 1001.12 63.117 998.877 60.8732C996.633 58.6293 993.839 57.0169 990.776 56.1983C987.712 55.3797 984.487 55.3839 981.425 56.2103ZM954.129 99.6708C953.731 100.068 953.226 100.339 952.675 100.449C952.124 100.558 951.553 100.502 951.035 100.287C950.516 100.072 950.073 99.7075 949.761 99.2401C949.449 98.7727 949.282 98.2232 949.282 97.6611C949.282 97.0989 949.449 96.5494 949.761 96.082C950.073 95.6146 950.516 95.2503 951.035 95.0352C951.553 94.8201 952.124 94.7638 952.675 94.8735C953.226 94.9831 953.731 95.2538 954.129 95.6513C954.393 95.9146 954.603 96.2277 954.747 96.5726C954.89 96.9176 954.964 97.2875 954.964 97.6611C954.964 98.0346 954.89 98.4045 954.747 98.7495C954.603 99.0944 954.393 99.4075 954.129 99.6708Z" fill="#2F2B33"/>
<path d="M1195.72 192.616L1148.18 205.364C1145.13 206.19 1142.34 207.804 1140.1 210.046C1137.87 212.288 1136.26 215.079 1135.44 218.138C1134.62 221.198 1134.62 224.42 1135.43 227.481C1136.25 230.542 1137.85 233.334 1140.09 235.58L1143.94 239.434L1144.71 240.28C1144.85 240.428 1144.92 240.624 1144.92 240.827C1144.92 241.03 1144.85 241.226 1144.71 241.374L1144 242.129L1141.31 244.814C1140.65 245.511 1140.29 246.437 1140.3 247.397C1140.31 248.356 1140.7 249.272 1141.38 249.95C1142.06 250.628 1142.97 251.014 1143.93 251.025C1144.89 251.037 1145.81 250.673 1146.51 250.011L1150.51 246.001L1158.97 237.539C1159.46 237.056 1160.12 236.785 1160.8 236.785C1161.49 236.785 1162.15 237.056 1162.64 237.539L1162.84 237.741C1163.33 238.232 1163.6 238.892 1163.6 239.581C1163.6 240.269 1163.33 240.93 1162.84 241.42L1129.95 274.487C1129.58 275.266 1129.49 276.15 1129.71 276.986C1129.92 277.822 1130.42 278.556 1131.12 279.06C1131.82 279.564 1132.67 279.806 1133.53 279.743C1134.39 279.681 1135.2 279.318 1135.82 278.718L1159.49 255.024L1187.68 226.842C1188.17 226.363 1188.83 226.095 1189.52 226.095C1190.2 226.095 1190.86 226.363 1191.35 226.842L1191.47 226.961C1191.95 227.454 1192.22 228.114 1192.22 228.801C1192.22 229.488 1191.95 230.148 1191.47 230.64L1150.04 272.197C1149.46 272.937 1149.19 273.869 1149.28 274.803C1149.37 275.737 1149.81 276.601 1150.51 277.22C1151.22 277.839 1152.13 278.166 1153.06 278.133C1154 278.1 1154.89 277.711 1155.55 277.044L1166.99 265.593L1168 264.673C1168.15 264.533 1168.34 264.456 1168.55 264.456C1168.75 264.456 1168.95 264.533 1169.1 264.673L1170.07 265.593L1174.93 270.458C1177.18 272.701 1179.97 274.313 1183.03 275.133C1186.09 275.954 1189.31 275.953 1192.37 275.132C1195.43 274.311 1198.22 272.698 1200.46 270.455C1202.7 268.212 1204.31 265.419 1205.13 262.355L1217.84 214.746C1218.66 211.68 1218.67 208.452 1217.84 205.385C1217.02 202.319 1215.41 199.523 1213.17 197.279C1210.93 195.035 1208.13 193.422 1205.07 192.604C1202 191.785 1198.78 191.789 1195.72 192.616ZM1168.42 236.076C1168.02 236.474 1167.52 236.744 1166.97 236.854C1166.42 236.964 1165.85 236.908 1165.33 236.692C1164.81 236.477 1164.36 236.113 1164.05 235.646C1163.74 235.178 1163.57 234.629 1163.57 234.067C1163.57 233.504 1163.74 232.955 1164.05 232.488C1164.36 232.02 1164.81 231.656 1165.33 231.441C1165.85 231.226 1166.42 231.169 1166.97 231.279C1167.52 231.389 1168.02 231.659 1168.42 232.057C1168.69 232.32 1168.9 232.633 1169.04 232.978C1169.18 233.323 1169.26 233.693 1169.26 234.067C1169.26 234.44 1169.18 234.81 1169.04 235.155C1168.9 235.5 1168.69 235.813 1168.42 236.076Z" fill="#F6E9FF"/>
</g>
</svg>
