<svg width="806" height="484" viewBox="0 0 806 484" fill="none"
    xmlns="http://www.w3.org/2000/svg">
    <g clip-path="url(#clip0_122_376)">
        <path d="M42.0523 482.918C41.9984 482.681 36.7836 458.931 47.4335 439.205C58.0833 419.48 80.8164 410.781 81.0448 410.695L82.0838 410.306L82.3292 411.387C82.3831 411.625 87.5978 435.375 76.948 455.101C66.2986 474.826 43.5652 483.525 43.3367 483.611L42.2973 484L42.0523 482.918ZM80.6589 412.945C76.1053 414.902 58.1335 423.464 49.1388 440.123C40.1432 456.785 42.8572 476.488 43.7226 481.361C48.2743 479.409 66.2391 470.86 75.2427 454.183C84.2378 437.522 81.5248 417.82 80.6589 412.945Z" fill="#FCC874"/>
        <path d="M68.8095 448.181C49.6712 459.681 42.3004 482.523 42.3004 482.523C42.3004 482.523 65.959 486.72 85.0973 475.22C104.236 463.72 111.606 440.878 111.606 440.878C111.606 440.878 87.9478 436.681 68.8095 448.181Z" fill="#6D2D87"/>
        <path d="M358.635 263.827C358.927 262.322 358.885 260.772 358.512 259.285C358.139 257.799 357.444 256.412 356.476 255.223C355.509 254.033 354.292 253.07 352.911 252.401C351.531 251.733 350.02 251.374 348.486 251.352L339.623 229.091L324.765 231.171L337.723 262.431C337.856 265.008 338.93 267.447 340.743 269.285C342.556 271.124 344.981 272.234 347.558 272.406C350.136 272.578 352.688 271.8 354.729 270.219C356.771 268.637 358.16 266.363 358.635 263.827Z" fill="#9F616A"/>
        <path d="M331.262 256.005L326.658 245.041L297.97 190.499L299.53 89.5773L299.829 89.5376C318.186 87.1152 330.607 171.593 331.126 175.191L349.253 237.107L353.567 250.754L331.262 256.005Z" fill="#FCC874"/>
        <path d="M287.181 468.815L301.129 468.814L307.764 415.079L287.178 415.08L287.181 468.815Z" fill="#9F616A"/>
        <path d="M283.622 464.266L311.092 464.265H311.093C315.736 464.266 320.189 466.108 323.472 469.387C326.755 472.665 328.599 477.112 328.599 481.749V482.317L283.623 482.319L283.622 464.266Z" fill="#2F2E41"/>
        <path d="M158.928 447.589L170.372 455.554L206.577 415.258L189.687 403.502L158.928 447.589Z" fill="#9F616A"/>
        <path d="M158.613 441.826L181.15 457.511L181.151 457.512C184.96 460.163 187.559 464.217 188.375 468.782C189.192 473.347 188.159 478.049 185.505 481.853L185.18 482.319L148.279 456.637L158.613 441.826Z" fill="#2F2E41"/>
        <path d="M279.515 456.184L278.912 355.381L270.135 291.996L253.772 347.737L253.741 347.783L194.444 433.762L171.37 422.086L171.497 421.786C172.907 418.437 206.133 339.765 215.064 339.765C215.844 339.819 216.625 339.684 217.341 339.369C218.057 339.055 218.685 338.572 219.172 337.961C221.794 334.466 219.659 327.047 219.637 326.973C217.081 316.385 223.509 312.779 224.789 312.177L228.233 241.179L228.59 241.204L321.944 247.744L318.027 336.51L309.602 452.811L309.313 452.844L279.515 456.184Z" fill="#2F2E41"/>
        <path d="M323.37 263.476L322.966 263.443L222.566 255.36L222.814 222.182L227.728 135.551L227.756 135.491L247.768 92.0984L261.954 85.6827L282.651 84.5948L282.702 84.6075L301.591 89.2814L321.24 230.159L323.37 263.476Z" fill="#FCC874"/>
        <path d="M285.895 73.4742C298.705 66.4802 303.413 50.4386 296.41 37.6443C289.407 24.85 273.346 20.1479 260.536 27.142C247.726 34.136 243.018 50.1776 250.02 62.9718C257.023 75.7661 273.084 80.4682 285.895 73.4742Z" fill="#9F616A"/>
        <path d="M246.63 56.9355V46.6488C246.63 46.6488 238.324 36.8786 247.461 34.4175C247.461 34.4175 249.953 9.80638 271.548 21.2916C271.548 21.2916 301.449 16.3694 298.127 33.5972C298.127 33.5972 305.602 29.0995 303.11 40.5847L298.291 59.0854C298.291 59.0854 300.619 46.8644 293.143 45.2236L288.99 42.7625C288.99 42.7625 277.362 54.2477 259.92 40.3014C259.92 40.3014 252.445 38.5194 253.275 45.9028C254.106 53.2861 246.63 56.9355 246.63 56.9355Z" fill="#2F2E41"/>
        <path d="M270.463 238.699C270.48 237.167 270.16 235.649 269.526 234.253C268.892 232.858 267.959 231.618 266.793 230.621C265.628 229.625 264.257 228.895 262.779 228.485C261.301 228.074 259.75 227.993 258.237 228.245L245.518 207.935L231.275 212.644L249.639 241.074C250.233 243.586 251.728 245.792 253.842 247.276C255.956 248.76 258.541 249.417 261.108 249.125C263.674 248.832 266.044 247.609 267.769 245.687C269.493 243.766 270.451 241.279 270.463 238.699Z" fill="#9F616A"/>
        <path d="M237.614 232.297L214.604 185.639L214.625 185.525C214.717 185.009 223.979 133.645 231.063 114.765C238.192 95.7658 247.95 91.9511 248.362 91.7981L248.568 91.7215L257.317 100.103L245.197 180.9L258.261 219.867L237.614 232.297Z" fill="#FCC874"/>
        <path d="M806 0H761.448V44.4963H806V0Z" fill="#FCC874"/>
        <path d="M457.336 173.149H412.785V217.645H457.336V173.149Z" fill="#6D2D87"/>
        <path d="M437.791 198.146H790.013V20.0562H437.791V198.146Z" fill="white"/>
        <path d="M792.919 201.048H434.885V17.1541H792.919V201.048ZM440.696 195.245H787.108V22.958H440.696V195.245Z" fill="#E5E5E5"/>
        <path d="M751.064 82.5269H480.069V91.5028H751.064V82.5269Z" fill="#E5E5E5"/>
        <path d="M751.064 104.294H480.069V113.27H751.064V104.294Z" fill="#E5E5E5"/>
        <path d="M751.064 136.435H700.702V144.224H751.064V136.435Z" fill="#FCC874"/>
        <path d="M369.971 483.961H0.96851C0.711645 483.961 0.4653 483.859 0.283669 483.678C0.102038 483.496 0 483.25 0 482.994C0 482.737 0.102038 482.491 0.283669 482.31C0.4653 482.128 0.711645 482.026 0.96851 482.026H369.971C370.228 482.026 370.474 482.128 370.656 482.31C370.837 482.491 370.939 482.737 370.939 482.994C370.939 483.25 370.837 483.496 370.656 483.678C370.474 483.859 370.228 483.961 369.971 483.961Z" fill="#2F2B33"/>
    </g>
    <defs>
        <clipPath id="clip0_122_376">
            <rect width="806" height="484" fill="white"/>
        </clipPath>
    </defs>
</svg>
