<svg width="707" height="507" viewBox="0 0 707 507" fill="none" xmlns="http://www.w3.org/2000/svg">
<g clip-path="url(#clip0_122_456)">
<path d="M18.7199 505.882C18.7199 506.502 19.2184 507 19.8393 507H705.881C706.501 507 707 506.502 707 505.882C707 505.261 706.501 504.763 705.881 504.763H19.8393C19.2184 504.763 18.7199 505.261 18.7199 505.882Z" fill="#3F3D58"/>
<path d="M238.401 89.4313H18.3718C9.9808 89.4313 3.15134 82.6077 3.15134 74.2238C3.15134 65.8399 9.9808 59.0162 18.3718 59.0162H238.401C246.792 59.0162 253.621 65.8399 253.621 74.2238C253.621 82.6077 246.792 89.4313 238.401 89.4313ZM18.3718 60.896C11.0156 60.896 5.03273 66.8738 5.03273 74.2238C5.03273 81.5738 11.0156 87.5515 18.3718 87.5515H238.401C245.757 87.5515 251.74 81.5738 251.74 74.2238C251.74 66.8738 245.757 60.896 238.401 60.896H18.3718Z" fill="#FCC874"/>
<path d="M238.401 267.401H18.3718C10.2348 267.401 3.62169 260.794 3.62169 252.664C3.62169 244.533 10.2348 237.926 18.3718 237.926H238.401C246.538 237.926 253.151 244.533 253.151 252.664C253.151 260.794 246.538 267.401 238.401 267.401Z" fill="#FCC874"/>
<path d="M166.297 29.4752H14.7501C6.6131 29.4752 0 22.8677 0 14.7376C0 6.60749 6.6131 0 14.7501 0H166.297C174.434 0 181.047 6.60749 181.047 14.7376C181.047 22.8677 174.434 29.4752 166.297 29.4752Z" fill="#6D2D87"/>
<path d="M238.401 148.908H18.3718C9.9808 148.908 3.15134 142.084 3.15134 133.701C3.15134 125.317 9.9808 118.493 18.3718 118.493H238.401C246.792 118.493 253.621 125.317 253.621 133.701C253.621 142.084 246.792 148.908 238.401 148.908ZM18.3718 120.373C11.0156 120.373 5.03273 126.351 5.03273 133.701C5.03273 141.051 11.0156 147.028 18.3718 147.028H238.401C245.757 147.028 251.74 141.051 251.74 133.701C251.74 126.351 245.757 120.373 238.401 120.373H18.3718Z" fill="#FCC874"/>
<path d="M238.401 208.394H18.3718C9.9808 208.394 3.15134 201.571 3.15134 193.187C3.15134 184.803 9.9808 177.979 18.3718 177.979H238.401C246.792 177.979 253.621 184.803 253.621 193.187C253.621 201.571 246.792 208.394 238.401 208.394ZM18.3718 179.859C11.0156 179.859 5.03273 185.837 5.03273 193.187C5.03273 200.537 11.0156 206.515 18.3718 206.515H238.401C245.757 206.515 251.74 200.537 251.74 193.187C251.74 185.837 245.757 179.859 238.401 179.859H18.3718Z" fill="#FCC874"/>
<path d="M10.8086 48.0946H68.4734C69.8468 48.0946 70.9662 49.2037 70.9662 50.5853C70.9662 51.9576 69.8468 53.0761 68.4734 53.0761H10.8086C9.43519 53.0761 8.31577 51.967 8.31577 50.5853C8.31577 49.2131 9.43519 48.0946 10.8086 48.0946Z" fill="#6D2D87"/>
<path d="M10.8086 108.981H68.4734C69.8468 108.981 70.9662 110.09 70.9662 111.463C70.9662 112.835 69.8468 113.953 68.4734 113.953H10.8086C9.43519 113.953 8.31577 112.844 8.31577 111.472C8.31577 110.1 9.43519 108.981 10.8086 108.981Z" fill="#6D2D87"/>
<path d="M10.8086 169.877H68.4734C69.8468 169.877 70.9662 170.986 70.9662 172.368C70.9662 173.74 69.8468 174.849 68.4734 174.849H10.8086C9.43519 174.849 8.31577 173.74 8.31577 172.359C8.31577 170.986 9.43519 169.877 10.8086 169.877Z" fill="#6D2D87"/>
<path d="M420.567 124.311L399.533 131.229V100.973H418.62L420.567 124.311Z" fill="#9F616A"/>
<path d="M402.139 109.348C413.714 109.348 423.097 99.9722 423.097 88.4068C423.097 76.8415 413.714 67.4659 402.139 67.4659C390.564 67.4659 381.18 76.8415 381.18 88.4068C381.18 99.9722 390.564 109.348 402.139 109.348Z" fill="#9F616A"/>
<path d="M407.896 86.3297C404.387 86.2263 402.082 82.6829 400.718 79.4496C399.354 76.2164 397.953 72.5038 394.698 71.1691C392.036 70.0788 387.342 77.457 385.244 75.4927C383.052 73.4437 385.187 62.9262 387.511 61.037C389.834 59.1478 393.014 58.7813 396.005 58.6403C403.305 58.3019 410.652 58.894 417.811 60.3885C422.241 61.3096 426.794 62.7006 429.993 65.8963C434.038 69.9567 435.073 76.0754 435.364 81.7994C435.665 87.6549 435.327 93.7831 432.476 98.9055C429.626 104.028 423.662 107.806 417.942 106.5C417.369 103.398 417.952 100.212 418.178 97.0539C418.394 93.9053 418.168 90.5028 416.24 87.9933C414.321 85.4838 410.201 84.4875 407.962 86.715" fill="#2F2E43"/>
<path d="M433.68 93.5857C435.778 92.0537 438.29 90.766 440.867 91.0856C443.652 91.4239 446.013 93.7173 446.728 96.4336C447.443 99.1499 446.643 102.139 444.912 104.357C443.191 106.575 440.623 108.041 437.913 108.774C436.343 109.197 434.621 109.376 433.125 108.737C430.924 107.788 429.729 104.977 430.595 102.74" fill="#2F2E43"/>
<path d="M353.476 290.617C352.075 297.497 354.643 303.785 359.196 304.659C363.749 305.533 368.575 300.655 369.967 293.775C370.56 291.03 370.465 288.192 369.694 285.485L387.031 177.631L365.348 173.552L356.976 283.05C355.198 285.269 354.003 287.863 353.476 290.626V290.617Z" fill="#9F616A"/>
<path d="M399.307 117.346H384.51C374.05 118.935 371.209 124.508 368.829 134.81C365.198 150.525 360.56 171.447 361.482 171.757C362.959 172.246 388.151 184.089 400.991 181.382L399.307 117.346Z" fill="#E2E3E4"/>
<path d="M413.615 460.889H393.917V488.813H413.615V460.889Z" fill="#9F616A"/>
<path d="M374.736 505.712C372.667 505.712 370.823 505.665 369.431 505.534C364.2 505.054 359.205 501.191 356.694 498.936C355.565 497.921 355.207 496.304 355.791 494.913C356.214 493.917 357.051 493.165 358.095 492.873L371.924 488.926L394.312 473.831L394.566 474.282C394.66 474.451 396.861 478.408 397.595 481.078C397.877 482.093 397.802 482.939 397.379 483.597C397.087 484.048 396.673 484.311 396.344 484.461C396.749 484.884 398.018 485.749 401.932 486.369C407.642 487.272 408.846 481.36 408.893 481.115L408.931 480.918L409.1 480.805C411.819 479.057 413.493 478.258 414.067 478.427C414.424 478.53 415.026 478.718 416.654 494.819C416.814 495.326 417.952 499.03 417.18 502.573C416.343 506.427 399.486 505.101 396.109 504.801C396.015 504.81 383.391 505.712 374.746 505.712H374.736Z" fill="#2F2E43"/>
<path d="M469.706 438.949L452.991 449.364L467.781 473.058L484.495 462.643L469.706 438.949Z" fill="#9F616A"/>
<path d="M447.509 501.887C445.194 501.887 443.069 501.605 441.554 501.342C440.068 501.079 438.901 499.894 438.657 498.409C438.487 497.338 438.798 496.257 439.531 495.458L449.174 484.8L460.18 460.156L460.631 460.4C460.801 460.494 464.761 462.684 466.802 464.564C467.583 465.278 467.969 466.039 467.95 466.819C467.941 467.365 467.734 467.797 467.527 468.107C468.091 468.257 469.624 468.314 473.274 466.772C478.599 464.526 476.491 458.868 476.397 458.633L476.322 458.445L476.407 458.266C477.79 455.343 478.777 453.783 479.361 453.623C479.727 453.52 480.33 453.36 490.235 466.171C490.64 466.509 493.565 469.056 494.788 472.468C496.114 476.181 481.11 483.973 478.091 485.495C477.997 485.57 462.296 496.971 455.843 500.214C453.284 501.502 450.255 501.896 447.499 501.896L447.509 501.887Z" fill="#2F2E43"/>
<path d="M428.121 227.371H372.968L367.963 278.633L389.863 468.041H418.018L406.758 358.646L452.428 457.411L477.451 439.91L441.789 347.706C441.789 347.706 454.526 267.382 444.517 247.372C434.508 227.371 428.121 227.371 428.121 227.371Z" fill="#2F2E43"/>
<path d="M455.561 230.491H367.963L394.246 117.346H432.41L455.561 230.491Z" fill="#E2E3E4"/>
<path d="M463.444 290.617C464.846 297.497 462.278 303.785 457.725 304.659C453.172 305.533 448.346 300.655 446.954 293.775C446.361 291.03 446.455 288.192 447.226 285.485L429.889 177.631L451.572 173.552L459.945 283.05C461.723 285.269 462.917 287.863 463.444 290.626V290.617Z" fill="#9F616A"/>
<path d="M417.613 117.346H432.41C442.871 118.935 445.712 124.508 448.092 134.81C451.723 150.525 456.361 171.447 455.439 171.757C453.962 172.246 428.77 184.089 415.929 181.382L417.613 117.346Z" fill="#E2E3E4"/>
</g>
<defs>
<clipPath id="clip0_122_456">
<rect width="707" height="507" fill="white"/>
</clipPath>
</defs>
</svg>
