<svg xmlns="http://www.w3.org/2000/svg" viewBox="0 0 451.1 195.18">
    <defs>
        <style>.cls-1{fill:#fcc874;opacity:0.6;}.cls-2{fill:#6d2d87;}.cls-3{font-size:80px;fill:#2f2b33;font-family:SimplyRounded, Simply Rounded;}</style>
    </defs>
    <g id="Layer_2" data-name="Layer 2">
        <g id="Layer_1-2" data-name="Layer 1">
            <path class="cls-1" d="M161.52,20.84S-16.94,90.89,39,160.52s227.41,23.6,351-43.4S354.76-41.7,161.52,20.84Z"/>
            <path class="cls-2" d="M72,56.29,20.26,70.15A19.66,19.66,0,0,0,11.45,103l4.2,4.19.83.92a.87.87,0,0,1,0,1.19l-.77.82-2.93,2.92a4,4,0,0,0,5.66,5.65l4.36-4.36,0,0,9.2-9.2a2.85,2.85,0,0,1,4,0l.22.22a2.85,2.85,0,0,1,0,4L.42,145.3a4,4,0,0,0,6.39,4.6l25.76-25.76,0,0L63.25,93.5a2.87,2.87,0,0,1,4,0l.13.13a2.87,2.87,0,0,1,0,4L22.28,142.81a4,4,0,0,0,6,5.27l12.45-12.45h0l1.1-1a.88.88,0,0,1,1.2,0l1.06,1,5.29,5.29a19.65,19.65,0,0,0,32.87-8.81L96.08,80.35A19.64,19.64,0,0,0,72,56.29ZM42.29,103.54a3.09,3.09,0,1,1,0-4.37A3.08,3.08,0,0,1,42.29,103.54Z"/>
            <text class="cls-3" transform="translate(122.27 127.72)">AdVance</text>
        </g>
    </g>
</svg>